<svg width="94" height="94" fill="none" xmlns="http://www.w3.org/2000/svg"><path d="M4.7 78.333c-.865 0-1.567.702-1.567 1.567v12.533c0 .865.702 1.567 1.567 1.567h84.6c.865 0 1.567-.701 1.567-1.567V79.9c0-.865-.702-1.567-1.567-1.567h-3.133V32.9H89.3c.865 0 1.567-.701 1.567-1.567v-6.266c0-.866-.702-1.567-1.567-1.567H70.5v-3.133h3.133a4.68 4.68 0 003.479-7.834A4.68 4.68 0 0073.633 4.7H70.5V1.567a1.567 1.567 0 00-3.133 0V4.7h-3.134a4.68 4.68 0 00-3.478 7.833 4.68 4.68 0 003.478 7.834h3.134V23.5h-18.8v-3.133H51.7a4.68 4.68 0 003.478-7.834A4.68 4.68 0 0051.7 4.7h-3.133V1.567a1.567 1.567 0 00-3.134 0V4.7H42.3a4.68 4.68 0 00-3.478 7.833 4.68 4.68 0 003.478 7.834h3.133V23.5h-18.8v-3.133h3.134a4.68 4.68 0 003.478-7.834A4.68 4.68 0 0029.767 4.7h-3.134V1.567a1.567 1.567 0 00-3.133 0V4.7h-3.133a4.68 4.68 0 00-3.479 7.833 4.68 4.68 0 003.479 7.834H23.5V23.5H4.7c-.865 0-1.567.701-1.567 1.567v6.266c0 .866.702 1.567 1.567 1.567h3.133v45.433H4.7zm59.533-70.5h9.4a1.567 1.567 0 010 3.134h-9.4a1.567 1.567 0 010-3.134zm-1.566 7.834c0-.865.701-1.567 1.566-1.567h9.4a1.567 1.567 0 010 3.133h-9.4a1.567 1.567 0 01-1.566-1.566zM42.3 7.833h9.4a1.567 1.567 0 010 3.134h-9.4a1.567 1.567 0 010-3.134zm-1.567 7.834c0-.865.702-1.567 1.567-1.567h9.4a1.567 1.567 0 010 3.133h-9.4a1.567 1.567 0 01-1.567-1.566zM20.367 7.833h9.4a1.567 1.567 0 010 3.134h-9.4a1.567 1.567 0 010-3.134zM18.8 15.667c0-.865.701-1.567 1.567-1.567h9.4a1.567 1.567 0 010 3.133h-9.4a1.567 1.567 0 01-1.567-1.566zM87.733 84.6H67.367a1.567 1.567 0 000 3.133h20.366v3.134H6.267v-3.134h43.866a1.567 1.567 0 100-3.133H6.267v-3.133h81.466V84.6zM6.267 26.633h81.466v3.134H6.267v-3.134zm4.7 6.267H23.5v4.7a1.567 1.567 0 003.133 0v-4.7h18.8v4.7a1.567 1.567 0 003.134 0v-4.7h18.8v4.7a1.567 1.567 0 103.133 0v-4.7h12.533v45.433H70.5V75.2a1.567 1.567 0 00-3.133 0v3.133h-18.8V75.2a1.567 1.567 0 00-3.134 0v3.133h-18.8V75.2a1.567 1.567 0 00-3.133 0v3.133H10.967V32.9z" fill="#00134B"/><path d="M61.1 84.6h-4.7a1.567 1.567 0 000 3.133h4.7a1.567 1.567 0 000-3.133zM29.767 70.5h34.466c.865 0 1.567-.701 1.567-1.567V43.867c0-.865-.701-1.567-1.567-1.567H29.767c-.866 0-1.567.702-1.567 1.567v25.066c0 .866.701 1.567 1.567 1.567zm1.566-25.067h31.334v21.934H31.333V45.433z" fill="#00134B"/><path d="M51.7 54.833H47l2.82-3.76a1.566 1.566 0 10-2.506-1.88l-4.7 6.267a1.566 1.566 0 001.253 2.507h4.05l-3.591 3.592a1.567 1.567 0 102.215 2.215l6.267-6.266a1.568 1.568 0 00-1.108-2.675z" fill="#00134B"/></svg>